<svg width="250" height="250" viewBox="0 0 250 250" fill="none" xmlns="http://www.w3.org/2000/svg">
<path fill-rule="evenodd" clip-rule="evenodd" d="M125 245C191.274 245 245 191.274 245 125C245 58.7258 191.274 5 125 5C58.7258 5 5 58.7258 5 125C5 191.274 58.7258 245 125 245ZM72 205L74.6374 188.648H86.0659C95.5604 188.648 101.07 184.018 102.593 174.758L114.198 104.077H85.1868L87.8242 86.8462H117.011L119.121 73.6593C120.527 64.8681 124.396 57.8938 130.725 52.7363C137.172 47.5788 145.201 45 154.813 45H177.495L174.857 61.8791H152.352C144.029 61.8791 139.223 65.8645 137.934 73.8352L136 86.8462H172.571L169.758 104.077H133.187L121.582 175.11C120.059 184.37 115.897 191.637 109.099 196.912C102.418 202.304 93.9194 205 83.6044 205H72ZM195 187C195 196.941 186.941 205 177 205C167.059 205 159 196.941 159 187C159 177.059 167.059 169 177 169C186.941 169 195 177.059 195 187Z" fill="#FF0063"/>
</svg>
